HIERARCHY
ROOT Hips
{
  OFFSET 5.84602e-005 68.8428 3.50346
  CHANNELS 6 Xposition Yposition Zposition Zrotation Xrotation Yrotation
  JOINT Spine
  {
    OFFSET 0 8.597 -4.6522
    CHANNELS 3 Zrotation Xrotation Yrotation
    JOINT Spine1
    {
      OFFSET 0 7.8454 0.4098
      CHANNELS 3 Zrotation Xrotation Yrotation
      JOINT Spine2
      {
        OFFSET 0 9.7078 -2.1609
        CHANNELS 3 Zrotation Xrotation Yrotation
        JOINT Neck
        {
          OFFSET 0 21.8761 -0.4549
          CHANNELS 3 Zrotation Xrotation Yrotation
          JOINT Head
          {
            OFFSET 0 12.3537 3.3602
            CHANNELS 3 Zrotation Xrotation Yrotation
            End Site
            {
              OFFSET 0.0001 18.9506 0.5657
            }
          }
        }
        JOINT LeftShoulder
        {
          OFFSET 2.2086 21.1115 7.2329
          CHANNELS 3 Zrotation Xrotation Yrotation
          JOINT LeftArm
          {
            OFFSET 13.1193 3.0282 -4.8998
            CHANNELS 3 Zrotation Xrotation Yrotation
            JOINT LeftForeArm
            {
              OFFSET 27.4081 -0.0973053 -0.2375
              CHANNELS 3 Zrotation Xrotation Yrotation
              JOINT LeftHand
              {
                OFFSET 22.8641 0.0662994 -0.1369
                CHANNELS 3 Zrotation Xrotation Yrotation
                JOINT LeftHandIndex1
                {
                  OFFSET 8.8614 0.775009 2.4612
                  CHANNELS 3 Zrotation Xrotation Yrotation
                  JOINT LeftHandIndex2
                  {
                    OFFSET 3.3146 -0.808304 0.5841
                    CHANNELS 3 Zrotation Xrotation Yrotation
                    JOINT LeftHandIndex3
                    {
                      OFFSET 2.2628 -0.552002 0.3989
                      CHANNELS 3 Zrotation Xrotation Yrotation
                      End Site
                      {
                        OFFSET 1.6102 -0.4807 0.2612
                      }
                    }
                  }
                }
                JOINT LeftHandMiddle1
                {
                  OFFSET 8.9937 0.895004 0.2143
                  CHANNELS 3 Zrotation Xrotation Yrotation
                  JOINT LeftHandMiddle2
                  {
                    OFFSET 4.0984 0.0113983 -0.0242
                    CHANNELS 3 Zrotation Xrotation Yrotation
                    JOINT LeftHandMiddle3
                    {
                      OFFSET 2.2716 0.00689697 -0.0138001
                      CHANNELS 3 Zrotation Xrotation Yrotation
                      End Site
                      {
                        OFFSET 2.0404 -0.1441 0.0027
                      }
                    }
                  }
                }
                JOINT LeftHandRing1
                {
                  OFFSET 8.5234 0.597198 -2.0164
                  CHANNELS 3 Zrotation Xrotation Yrotation
                  JOINT LeftHandRing2
                  {
                    OFFSET 3.7188 -0.188293 -0.2328
                    CHANNELS 3 Zrotation Xrotation Yrotation
                    JOINT LeftHandRing3
                    {
                      OFFSET 2.1191 -0.106598 -0.1332
                      CHANNELS 3 Zrotation Xrotation Yrotation
                      End Site
                      {
                        OFFSET 1.8737 -0.2304 -0.0886
                      }
                    }
                  }
                }
                JOINT LeftHandPinky1
                {
                  OFFSET 7.9094 -0.601089 -3.4825
                  CHANNELS 3 Zrotation Xrotation Yrotation
                  JOINT LeftHandPinky2
                  {
                    OFFSET 2.2874 -0.477005 -0.6314
                    CHANNELS 3 Zrotation Xrotation Yrotation
                    JOINT LeftHandPinky3
                    {
                      OFFSET 1.6774 -0.349396 -0.4633
                      CHANNELS 3 Zrotation Xrotation Yrotation
                      End Site
                      {
                        OFFSET 1.4888 -0.4091 -0.3416
                      }
                    }
                  }
                }
                JOINT LeftHandThumb1
                {
                  OFFSET 1.833 -1.3875 1.3896
                  CHANNELS 3 Zrotation Xrotation Yrotation
                  JOINT LeftHandThumb2
                  {
                    OFFSET 3.4129 -1.121 2.5732
                    CHANNELS 3 Zrotation Xrotation Yrotation
                    JOINT LeftHandThumb3
                    {
                      OFFSET 2.2474 -0.804199 1.6192
                      CHANNELS 3 Zrotation Xrotation Yrotation
                      End Site
                      {
                        OFFSET 1.6527 -0.5689 1.1317
                      }
                    }
                  }
                }
              }
            }
          }
        }
        JOINT RightShoulder
        {
          OFFSET -2.2086 21.1115 7.2329
          CHANNELS 3 Zrotation Xrotation Yrotation
          JOINT RightArm
          {
            OFFSET -13.1216 3.0287 -4.9007
            CHANNELS 3 Zrotation Xrotation Yrotation
            JOINT RightForeArm
            {
              OFFSET -27.4081 -0.0973053 -0.2375
              CHANNELS 3 Zrotation Xrotation Yrotation
              JOINT RightHand
              {
                OFFSET -22.8641 0.0664063 -0.1369
                CHANNELS 3 Zrotation Xrotation Yrotation
                JOINT RightHandIndex1
                {
                  OFFSET -8.8614 0.774994 2.4612
                  CHANNELS 3 Zrotation Xrotation Yrotation
                  JOINT RightHandIndex2
                  {
                    OFFSET -3.3146 -0.808304 0.5841
                    CHANNELS 3 Zrotation Xrotation Yrotation
                    JOINT RightHandIndex3
                    {
                      OFFSET -2.2628 -0.552002 0.3989
                      CHANNELS 3 Zrotation Xrotation Yrotation
                      End Site
                      {
                        OFFSET -1.6102 -0.4807 0.2612
                      }
                    }
                  }
                }
                JOINT RightHandMiddle1
                {
                  OFFSET -8.9937 0.894989 0.2143
                  CHANNELS 3 Zrotation Xrotation Yrotation
                  JOINT RightHandMiddle2
                  {
                    OFFSET -4.0984 0.0113983 -0.0242
                    CHANNELS 3 Zrotation Xrotation Yrotation
                    JOINT RightHandMiddle3
                    {
                      OFFSET -2.2716 0.00691223 -0.0138001
                      CHANNELS 3 Zrotation Xrotation Yrotation
                      End Site
                      {
                        OFFSET -2.0404 -0.1441 0.0027
                      }
                    }
                  }
                }
                JOINT RightHandRing1
                {
                  OFFSET -8.5234 0.597198 -2.0164
                  CHANNELS 3 Zrotation Xrotation Yrotation
                  JOINT RightHandRing2
                  {
                    OFFSET -3.7188 -0.188309 -0.2328
                    CHANNELS 3 Zrotation Xrotation Yrotation
                    JOINT RightHandRing3
                    {
                      OFFSET -2.1191 -0.106598 -0.1332
                      CHANNELS 3 Zrotation Xrotation Yrotation
                      End Site
                      {
                        OFFSET -1.8737 -0.2304 -0.0886
                      }
                    }
                  }
                }
                JOINT RightHandPinky1
                {
                  OFFSET -7.9094 -0.601105 -3.4825
                  CHANNELS 3 Zrotation Xrotation Yrotation
                  JOINT RightHandPinky2
                  {
                    OFFSET -2.2874 -0.477005 -0.6314
                    CHANNELS 3 Zrotation Xrotation Yrotation
                    JOINT RightHandPinky3
                    {
                      OFFSET -1.6774 -0.349396 -0.4633
                      CHANNELS 3 Zrotation Xrotation Yrotation
                      End Site
                      {
                        OFFSET -1.4888 -0.4091 -0.3416
                      }
                    }
                  }
                }
                JOINT RightHandThumb1
                {
                  OFFSET -1.833 -1.38751 1.3896
                  CHANNELS 3 Zrotation Xrotation Yrotation
                  JOINT RightHandThumb2
                  {
                    OFFSET -3.41299 -1.12099 2.5732
                    CHANNELS 3 Zrotation Xrotation Yrotation
                    JOINT RightHandThumb3
                    {
                      OFFSET -2.24741 -0.804108 1.6192
                      CHANNELS 3 Zrotation Xrotation Yrotation
                      End Site
                      {
                        OFFSET -1.6527 -0.5689 1.1317
                      }
                    }
                  }
                }
              }
            }
          }
        }
      }
    }
  }
  JOINT RightUpLeg
  {
    OFFSET -9.1966 3.8861 -0.7581
    CHANNELS 3 Zrotation Xrotation Yrotation
    JOINT RightLeg
    {
      OFFSET -0.7359 -41.0265 0
      CHANNELS 3 Zrotation Xrotation Yrotation
      JOINT RightFoot
      {
        OFFSET 0 -40.2855 0
        CHANNELS 3 Zrotation Xrotation Yrotation
        JOINT RightToeBase
        {
          OFFSET 0 -5.6122 11.7359
          CHANNELS 3 Zrotation Xrotation Yrotation
          End Site
          {
            OFFSET 0 0 7.8731
          }
        }
      }
    }
  }
  JOINT LeftUpLeg
  {
    OFFSET 9.1965 3.8864 -0.7581
    CHANNELS 3 Zrotation Xrotation Yrotation
    JOINT LeftLeg
    {
      OFFSET 0.7359 -41.0268 0
      CHANNELS 3 Zrotation Xrotation Yrotation
      JOINT LeftFoot
      {
        OFFSET 0 -40.2855 0
        CHANNELS 3 Zrotation Xrotation Yrotation
        JOINT LeftToeBase
        {
          OFFSET 0 -5.6122 11.7359
          CHANNELS 3 Zrotation Xrotation Yrotation
          End Site
          {
            OFFSET 0 0 7.8731
          }
        }
      }
    }
  }
}
MOTION
Frames:	4
Frame Time:	0.0333333
-0.00125488 26.9122 38.6433 -0.0268159 -74.9991 179.979 -0.707201 4.42295 -0.581687 -1.37535 8.85246 -1.11339 -1.37536 8.85246 -1.11339 -4.00609e-005 -5.71682 1.11751e-005 3.7274e-008 9.48696 -1.60382e-007 -7.3919 2.92989 30.1263 8.7517 -18.9186 -63.3138 -33.4001 -43.4873 -132.774 27.2241 36.3942 -3.22267 -1.54487e-031 -2.78299e-015 -3.18055e-015 -5.73808e-031 -5.1684e-015 -6.36111e-015 1.59028e-015 -1.98785e-015 -4.77083e-015 -1.54487e-031 -2.78299e-015 -3.18055e-015 -0.0146219 -8.51226e-005 -2.71623e-007 1.2711e-006 -4.44989e-007 2.30376e-006 -1.54487e-031 -2.78299e-015 -3.18055e-015 -0.0187574 -0.00117305 6.54758e-005 -4.41391e-032 -1.59028e-015 -1.59028e-015 -1.54487e-031 -2.78299e-015 -3.18055e-015 -0.0122546 -0.00323751 0.000673173 -3.18055e-015 7.95139e-016 -4.77083e-015 -1.54487e-031 -2.78299e-015 -3.18055e-015 -5.73808e-031 -5.1684e-015 -6.36111e-015 1.59028e-015 -1.98785e-015 -4.77083e-015 13.9726 0.741048 -28.5739 -6.53925 -14.4487 61.3914 27.6456 -40.1781 133.565 -27.6132 36.5772 3.77339 -4.16226e-007 1.23304e-007 5.81773e-006 2.3239e-006 -4.12603e-007 -4.97667e-007 -4.16226e-007 1.23304e-007 5.81773e-006 -4.16226e-007 1.23304e-007 5.81773e-006 0.0150076 -9.33489e-005 1.84947e-006 -4.15693e-007 1.24062e-007 5.81771e-006 -4.16226e-007 1.23304e-007 5.81773e-006 0.0189897 -0.00119242 -6.3641e-005 -4.15497e-007 1.24225e-007 5.81771e-006 -4.16226e-007 1.23304e-007 5.81773e-006 0.012274 -0.00325159 -0.000682463 -4.15629e-007 1.2381e-007 5.8177e-006 -4.16226e-007 1.23304e-007 5.81773e-006 2.3239e-006 -4.12603e-007 -4.97667e-007 -4.16226e-007 1.23304e-007 5.81773e-006 -95.4428 -65.9681 -109.867 -170.168 67.6183 168.797 -13.7604 49.152 5.40868 -3.32269e-008 -1.63073e-008 -1.00084e-007 95.2627 -66.096 109.57 170.288 67.7535 -168.879 13.5322 48.5975 -5.30224 1.38352e-006 1.99579e-006 1.09833e-006 
-0.00125489 26.9122 38.7384 -0.0268159 -74.9991 179.979 -0.703099 4.39971 -0.575117 -1.3678 8.80597 -1.10075 -1.3678 8.80598 -1.10075 -9.2183e-007 -5.52826 3.60179e-006 -2.30596e-007 8.476 -1.01909e-006 -7.20866 2.95253 29.9278 8.76365 -19.002 -63.1386 -33.5484 -43.6015 -132.776 27.1091 36.3618 -3.10785 -1.28085e-006 4.3352e-007 -2.29478e-006 -7.68307e-007 -2.70165e-007 -1.32042e-006 2.42765e-031 -8.74653e-015 1.59028e-015 -1.28085e-006 4.3352e-007 -2.29478e-006 -0.0146116 -8.77168e-005 6.72393e-006 3.08973e-031 -5.56597e-015 3.18055e-015 -1.28085e-006 4.3352e-007 -2.29478e-006 -0.0187732 -0.00117711 5.98669e-005 3.18055e-015 1.19271e-014 -1.59028e-015 -1.28085e-006 4.3352e-007 -2.29478e-006 -0.0122479 -0.00324306 0.000682117 -1.59028e-015 1.98785e-015 1.59028e-015 -1.28085e-006 4.3352e-007 -2.29478e-006 -7.68307e-007 -2.70165e-007 -1.32042e-006 2.42765e-031 -8.74653e-015 1.59028e-015 13.8071 0.732006 -28.3693 -6.55331 -14.5311 61.2178 27.7781 -40.2816 133.558 -27.4839 36.5392 3.63852 6.17947e-031 -5.56597e-015 6.36111e-015 1.05934e-030 -6.36111e-015 9.54166e-015 1.59028e-015 -3.18055e-015 3.18055e-015 6.17947e-031 -5.56597e-015 6.36111e-015 0.0149896 -8.88551e-005 9.44132e-006 -1.59028e-015 -1.11319e-014 9.54166e-015 6.17947e-031 -5.56597e-015 6.36111e-015 0.0189802 -0.00118913 -6.07585e-005 3.18055e-015 6.75868e-015 6.36111e-015 6.17947e-031 -5.56597e-015 6.36111e-015 0.0122519 -0.00324369 -0.000682973 -3.18055e-015 -1.59028e-015 3.18055e-015 6.17947e-031 -5.56597e-015 6.36111e-015 1.05934e-030 -6.36111e-015 9.54166e-015 1.59028e-015 -3.18055e-015 3.18055e-015 -95.4428 -65.9681 -109.867 -170.168 67.6183 168.797 -13.7604 49.152 5.40868 -3.32269e-008 -1.63073e-008 -1.00084e-007 95.2627 -66.096 109.57 170.288 67.7535 -168.88 13.5322 48.5975 -5.30225 1.65012e-006 3.17284e-006 2.82982e-007 
-0.00125488 26.9122 38.8335 -0.0268159 -74.9991 179.979 -0.698937 4.37661 -0.56858 -1.36012 8.75941 -1.08818 -1.36012 8.75944 -1.08818 -1.86737e-005 -5.33855 2.56185e-006 3.40169e-007 7.46315 -4.42876e-007 -7.02532 2.97459 29.7291 8.77588 -19.0854 -62.9632 -33.6969 -43.7156 -132.778 26.9942 36.3292 -2.99314 -1.59028e-015 1.59028e-015 -1.59028e-015 -1.59028e-015 1.19271e-015 -1.59028e-015 1.59028e-015 7.95139e-015 1.59028e-015 -1.59028e-015 1.59028e-015 -1.59028e-015 -0.0146313 -8.65205e-005 2.72523e-006 -1.59028e-015 -5.56597e-015 -4.77083e-015 -1.59028e-015 1.59028e-015 -1.59028e-015 -0.0187816 -0.00117608 5.68359e-005 -4.77083e-015 -7.95139e-015 -1.43125e-014 -1.59028e-015 1.59028e-015 -1.59028e-015 -0.0122843 -0.00325461 0.000670777 -1.59028e-015 -1.59028e-015 3.18055e-015 -1.59028e-015 1.59028e-015 -1.59028e-015 -1.59028e-015 1.19271e-015 -1.59028e-015 1.59028e-015 7.95139e-015 1.59028e-015 13.6415 0.722419 -28.1647 -6.56764 -14.6136 61.0442 27.9107 -40.3851 133.552 -27.3549 36.5009 3.50381 4.13518e-007 2.32377e-006 -1.09292e-007 1.59028e-015 2.78299e-015 -6.36111e-015 4.13518e-007 2.32377e-006 -1.09292e-007 4.13518e-007 2.32377e-006 -1.09292e-007 0.0149947 -9.07324e-005 4.64379e-006 4.13583e-007 2.32376e-006 -1.09597e-007 4.13518e-007 2.32377e-006 -1.09292e-007 0.01899 -0.0011903 -6.37703e-005 4.13598e-007 2.32375e-006 -1.09682e-007 4.13518e-007 2.32377e-006 -1.09292e-007 0.0122747 -0.0032501 -0.000683348 4.13554e-007 2.32375e-006 -1.09556e-007 4.13518e-007 2.32377e-006 -1.09292e-007 1.59028e-015 2.78299e-015 -6.36111e-015 4.13518e-007 2.32377e-006 -1.09292e-007 -95.4428 -65.9681 -109.867 -170.168 67.6183 168.797 -13.7604 49.152 5.40868 -3.32269e-008 -1.63073e-008 -1.00084e-007 95.2627 -66.096 109.57 170.288 67.7535 -168.879 13.5322 48.5975 -5.30224 1.38352e-006 1.99579e-006 1.09833e-006 
-0.00125488 26.9122 38.9286 -0.0268159 -74.9991 179.979 -0.694714 4.35336 -0.562079 -1.35231 8.71287 -1.07569 -1.35231 8.71285 -1.07569 1.30104e-005 -5.14969 2.09852e-006 -5.31072e-007 6.44859 -1.06465e-006 -6.84187 2.99596 29.5304 8.7884 -19.1687 -62.7877 -33.8458 -43.8298 -132.781 26.8794 36.2964 -2.87857 -0 -1.98785e-015 -0 1.59028e-015 -1.59028e-015 -1.59028e-015 1.59028e-015 -2.38542e-015 -3.18055e-015 -0 -1.98785e-015 -0 -0.0146338 -9.20501e-005 7.91117e-007 3.18055e-015 1.19271e-015 3.18055e-015 -0 -1.98785e-015 -0 -0.0187566 -0.00117285 6.28938e-005 -2.08514e-006 7.08893e-007 -9.64021e-007 -0 -1.98785e-015 -0 -0.0122834 -0.00324785 0.000675781 2.64834e-031 3.18055e-015 -4.77083e-015 -0 -1.98785e-015 -0 1.59028e-015 -1.59028e-015 -1.59028e-015 1.59028e-015 -2.38542e-015 -3.18055e-015 13.4761 0.712185 -27.96 -6.58225 -14.696 60.8705 28.0436 -40.4886 133.546 -27.226 36.4624 3.36928 -2.38074e-006 1.29815e-006 2.76956e-006 -6.27389e-007 -1.36163e-006 -2.11906e-006 -5.70279e-008 8.84197e-007 2.27053e-006 -2.38074e-006 1.29815e-006 2.76956e-006 0.01499 -9.15367e-005 3.68483e-006 1.59028e-015 -7.95139e-016 3.18055e-015 -2.38074e-006 1.29815e-006 2.76956e-006 0.0189907 -0.0011908 -6.53766e-005 1.59028e-015 6.36111e-015 6.36111e-015 -2.38074e-006 1.29815e-006 2.76956e-006 0.0122889 -0.00325626 -0.000674446 0 0 -0 -2.38074e-006 1.29815e-006 2.76956e-006 -6.27389e-007 -1.36163e-006 -2.11906e-006 -5.70279e-008 8.84197e-007 2.27053e-006 -95.4428 -65.9681 -109.867 -170.168 67.6183 168.797 -13.7604 49.152 5.40868 3.81991e-006 3.42758e-006 1.1634e-007 95.2627 -66.096 109.57 170.288 67.7535 -168.879 13.5322 48.5975 -5.30223 2.69906e-007 -1.30767e-007 7.99266e-007 
